<svg version="1.1" xmlns="http://www.w3.org/2000/svg" viewBox="8 11 292 278" width="292" height="278">
  <defs>
    <mask id="logo-mask-white">
      <path d="M0 0 C0.66 0 1.32 0 2 0 C3.4453125 1.62963867 3.4453125 1.62963867 5.125 3.91796875 C5.7449585 4.75489258 6.36491699 5.59181641 7.00366211 6.45410156 C7.66245361 7.35612305 8.32124512 8.25814453 9 9.1875 C10.35482393 11.02000816 11.71029456 12.85203837 13.06640625 14.68359375 C13.7330127 15.58706543 14.39961914 16.49053711 15.08642578 17.42138672 C17.66414728 20.89496345 20.29085622 24.3287889 22.9375 27.75 C23.73027344 28.77609375 24.52304688 29.8021875 25.33984375 30.859375 C26.16162109 31.91898438 26.16162109 31.91898438 27 33 C31.54711989 31.35307495 35.03012164 28.97463832 38.9140625 26.14453125 C39.60242188 25.76683594 40.29078125 25.38914062 41 25 C44 26 44 26 45.34692383 28.15454102 C45.79575928 29.09483154 46.24459473 30.03512207 46.70703125 31.00390625 C47.45968262 32.57023804 47.45968262 32.57023804 48.22753906 34.16821289 C49.01209473 35.84838501 49.01209473 35.84838501 49.8125 37.5625 C50.34713867 38.69099365 50.88177734 39.8194873 51.43261719 40.98217773 C55.42019777 49.50225965 58.9742628 58.09530851 62 67 C62.53367188 66.76812988 63.06734375 66.53625977 63.6171875 66.29736328 C66.07543831 65.23357438 68.53764523 64.17925264 71 63.125 C71.83917969 62.76019531 72.67835938 62.39539063 73.54296875 62.01953125 C78.65002901 59.84210246 83.57603831 58.19276935 89 57 C95.48990342 110.02019315 95.48990342 110.02019315 88 125 C89.216875 124.690625 90.43375 124.38125 91.6875 124.0625 C97.73076221 122.70131794 103.82945928 122.36241197 110 122 C110.91638287 143.6368177 104.57613479 164.3190383 94 183 C93.16855469 184.49080078 93.16855469 184.49080078 92.3203125 186.01171875 C79.58882969 207.36284184 57.43626695 223.8403247 33.453125 230.28515625 C1.88382957 238.14460596 -30.11894528 235.26256971 -58.4375 219 C-84.69783395 202.29284402 -100.42855874 176.87769983 -107.4453125 146.82910156 C-109.04771394 138.65628999 -109.56470743 130.30543032 -110 122 C-102.51528217 122.48869292 -95.32161879 123.37307522 -88 125 C-88.14147461 124.20835449 -88.28294922 123.41670898 -88.42871094 122.60107422 C-89.95459841 113.2057372 -90.30985883 104.08769501 -90.26074219 94.58740234 C-90.25004292 92.13483801 -90.26069193 89.68301076 -90.2734375 87.23046875 C-90.28112643 77.00803278 -89.53221068 67.10595905 -88 57 C-81.61187259 59.05719357 -75.36168304 61.36739896 -69.11328125 63.81640625 C-66.09897348 64.96237269 -63.06623521 66.00243922 -60 67 C-59.86078125 65.78763672 -59.86078125 65.78763672 -59.71875 64.55078125 C-58.82854192 60.15295983 -57.26143616 56.30073915 -55.5 52.1875 C-55.15195313 51.36596436 -54.80390625 50.54442871 -54.4453125 49.69799805 C-50.77705021 41.20782449 -46.47377516 33.08800556 -42 25 C-38.10993227 26.38780795 -35.03441292 28.2152227 -31.6875 30.625 C-30.36298828 31.57246094 -30.36298828 31.57246094 -29.01171875 32.5390625 C-28.34785156 33.02117187 -27.68398437 33.50328125 -27 34 C-21.92122744 28.4032023 -17.35414168 22.5660183 -12.9375 16.4375 C-8.83656636 10.75754901 -4.76204765 5.14909361 0 0 Z " fill="white" transform="translate(154,39)"/>
      <path d="M0 0 C0.20539661 5.75110513 -0.32485414 10.50624905 -2 16 C-2.22002686 16.72912598 -2.44005371 17.45825195 -2.66674805 18.20947266 C-6.61028698 30.62714051 -12.74742836 41.91691339 -21 52 C-21.74894531 52.92425781 -22.49789062 53.84851563 -23.26953125 54.80078125 C-33.19756011 66.39684727 -45.20092628 73.12737095 -59 79 C-60.10601562 79.49113281 -60.10601562 79.49113281 -61.234375 79.9921875 C-68.58126847 83.03769462 -77.06975714 85 -85 85 C-85.55576681 66.61338125 -74.93185451 48.17451828 -64 34 C-63.38769531 33.20335937 -62.77539062 32.40671875 -62.14453125 31.5859375 C-47.97890584 14.49053455 -22.61788867 -0.4349594 0 0 Z " fill="black" transform="translate(250,176)"/>
      <path d="M0 0 C21.22927381 4.43455942 38.63992189 10.24627397 55 25 C55.85335937 25.75925781 56.70671875 26.51851562 57.5859375 27.30078125 C72.6633562 41.47355483 82.35382165 61.77810297 86 82 C86 83.32 86 84.64 86 86 C65.51888921 84.09018581 46.44056234 76.80330858 31 63 C30.17886719 62.27296875 29.35773438 61.5459375 28.51171875 60.796875 C13.09184234 46.31226326 3.96681043 26.62248651 0 6 C-0.05698939 4.00081211 -0.075818 1.99856239 0 0 Z " fill="black" transform="translate(58,175)"/>
      <path d="M0 0 C3.0672401 1.50468382 5.41908376 3.69435544 7.8828125 6.015625 C8.41543701 6.51545898 8.94806152 7.01529297 9.49682617 7.53027344 C16.15156052 13.88431464 20.98913176 20.36609547 25.0078125 28.640625 C25.31501221 29.26227539 25.62221191 29.88392578 25.9387207 30.52441406 C27.92205934 34.84233734 28.86684774 38.3023337 28.0703125 43.015625 C25.375 45.56640625 25.375 45.56640625 23.70996094 46.76806641 C21.02205983 48.81320856 19.13438336 51.47554082 17.1953125 54.203125 C16.77040527 54.79971924 16.34549805 55.39631348 15.90771484 56.01098633 C8.69814611 66.55851801 4.10646797 78.96026591 0.0703125 91.015625 C-2.04274493 88.90256757 -2.62211421 87.58663078 -3.6640625 84.83203125 C-3.98761719 83.9920459 -4.31117188 83.15206055 -4.64453125 82.28662109 C-4.98613281 81.39281738 -5.32773438 80.49901367 -5.6796875 79.578125 C-10.72736088 66.72432496 -16.32690622 54.66805862 -26.9296875 45.390625 C-29.3084176 42.56588301 -29.3095811 40.81646075 -29.21044922 37.20019531 C-28.73363081 33.49013345 -27.23279269 30.47898763 -25.4921875 27.203125 C-25.13237793 26.51025391 -24.77256836 25.81738281 -24.40185547 25.10351562 C-20.21163463 17.30489849 -10.03858243 0.08128407 0 0 Z " fill="black" transform="translate(154.9296875,149.984375)"/>
      <path d="M0 0 C20.84779923 7.94201875 38.03104226 20.63592702 54 36 C53.41155405 39.71561586 51.83793434 41.58874609 49.375 44.375 C42.90924969 52.22460694 38.57335185 61.16879657 36 71 C35.35417969 70.5875 34.70835938 70.175 34.04296875 69.75 C26.7566414 65.284508 19.41049434 61.92426352 11.4128418 58.9296875 C5.48023963 56.59817667 5.48023963 56.59817667 3.01171875 53.5234375 C2.09869229 51.24615915 1.36410855 49.15107833 0.875 46.75 C0.72804688 46.06421875 0.58109375 45.3784375 0.4296875 44.671875 C-0.99563305 35.80897266 -1.15188329 27.15307777 -1.125 18.1875 C-1.12886719 16.87845703 -1.13273437 15.56941406 -1.13671875 14.22070312 C-1.13542969 12.96580078 -1.13414063 11.71089844 -1.1328125 10.41796875 C-1.13168457 9.28125732 -1.13055664 8.1445459 -1.12939453 6.97338867 C-1.01998276 4.45918867 -0.73555784 2.39184125 0 0 Z " fill="black" transform="translate(77,113)"/>
      <path d="M0 0 C0.04988602 5.3527698 0.08594697 10.70540066 0.10986328 16.05834961 C0.11984632 17.87477988 0.1334375 19.69119439 0.15087891 21.50756836 C0.38331516 46.35773809 0.38331516 46.35773809 -4 55 C-5.92016602 56.31445312 -5.92016602 56.31445312 -8.25390625 57.28125 C-9.10919922 57.64863281 -9.96449219 58.01601562 -10.84570312 58.39453125 C-11.74224609 58.75933594 -12.63878906 59.12414062 -13.5625 59.5 C-15.31551552 60.23551281 -17.06683394 60.97508392 -18.81640625 61.71875 C-19.6789502 62.08355469 -20.54149414 62.44835937 -21.43017578 62.82421875 C-24.76217197 64.34871938 -27.88082444 66.15860063 -31.00756836 68.06445312 C-33 69 -33 69 -37 69 C-37.268125 68.20078125 -37.53625 67.4015625 -37.8125 66.578125 C-41.62512538 55.8927407 -46.73409946 46.92148802 -55 39 C-47.47748654 22.20468529 -23.99176088 10.1648998 -8 3 C-6.90429688 2.43796875 -5.80859375 1.8759375 -4.6796875 1.296875 C-2 0 -2 0 0 0 Z " fill="black" transform="translate(232,113)"/>
      <path d="M0 0 C3 1 3 1 4.02734375 2.63891602 C4.32769531 3.33686279 4.62804687 4.03480957 4.9375 4.75390625 C5.27523437 5.52669922 5.61296875 6.29949219 5.9609375 7.09570312 C6.30382812 7.90974609 6.64671875 8.72378906 7 9.5625 C7.34289062 10.34947266 7.68578125 11.13644531 8.0390625 11.94726562 C9.0505181 14.28866952 10.02792343 16.64201714 11 19 C11.31453125 19.72558105 11.6290625 20.45116211 11.953125 21.19873047 C13.16872709 24.13896803 14.00112356 26.59776483 13.9921875 29.796875 C12.62839101 32.82514752 11.00541476 33.63435659 8.125 35.25 C-3.34655783 42.11218511 -13.64527631 51.4606436 -23 61 C-25.69923662 59.42215063 -27.16619316 58.46348367 -29 56 C-30.05892303 51.81583136 -30.09352637 47.73841826 -30.0625 43.4375 C-30.05871338 42.26396973 -30.05492676 41.09043945 -30.05102539 39.88134766 C-29.77729762 32.88152847 -29.08102346 27.84849669 -23.9375 22.875 C-22.01270877 21.16198513 -20.03177991 19.59128562 -18 18 C-16.73418739 16.6159792 -15.49958582 15.20210963 -14.3125 13.75 C-9.97223646 8.75085308 -5.5269276 3.6846184 0 0 Z " fill="black" transform="translate(190,82)"/>
      <path d="M0 0 C8.01652162 1.67930031 14.09263168 9.82168961 19.19921875 15.87890625 C22.10291282 19.29909255 25.15434774 22.58594685 28.1796875 25.8984375 C32.49137949 30.87631366 31.26414377 37.14796619 31.3125 43.4375 C31.34150391 44.69111328 31.37050781 45.94472656 31.40039062 47.23632812 C31.40876953 48.43580078 31.41714844 49.63527344 31.42578125 50.87109375 C31.44036377 51.97380615 31.45494629 53.07651855 31.4699707 54.21264648 C31 57 31 57 29.09472656 58.88330078 C27 60 27 60 25.05859375 59.99609375 C22.08972432 58.55954403 20.30805431 56.47013943 18.0625 54.0625 C9.41829563 45.06887103 -0.71654702 38.01039007 -11 31 C-10.58142318 23.59029969 -7.9884074 17.70612109 -4.9375 11 C-4.46505859 9.93910156 -3.99261719 8.87820312 -3.50585938 7.78515625 C-2.34664614 5.18570838 -1.17788456 2.59102724 0 0 Z " fill="black" transform="translate(116,82)"/>
      <path d="M0 0 C4.71680013 3.35416898 7.8490015 7.39864909 11.25 12 C11.79140625 12.7115625 12.3328125 13.423125 12.890625 14.15625 C13.6640625 15.19265625 13.6640625 15.19265625 14.453125 16.25 C14.91879883 16.87390625 15.38447266 17.4978125 15.86425781 18.140625 C17.082219 20.13460445 17.70411234 21.68256238 18 24 C16.41015625 26.0078125 16.41015625 26.0078125 14.0625 28.125 C9.18243989 32.72204722 5.07190762 37.68543937 1 43 C-3.05789914 39.00323682 -6.94796935 34.87084366 -10.8125 30.6875 C-11.7087207 29.71973633 -11.7087207 29.71973633 -12.62304688 28.73242188 C-14.08291428 27.15576508 -15.54158093 25.57799662 -17 24 C-15.70063656 20.37878413 -14.15796756 17.62462983 -11.77734375 14.609375 C-11.15666016 13.81789063 -10.53597656 13.02640625 -9.89648438 12.2109375 C-9.25001953 11.39882812 -8.60355469 10.58671875 -7.9375 9.75 C-7.28716797 8.92242187 -6.63683594 8.09484375 -5.96679688 7.2421875 C-1.23455598 1.23455598 -1.23455598 1.23455598 0 0 Z " fill="black" transform="translate(154,59)"/>
    </mask>
  </defs>
  <rect x="0" y="0" width="292" height="278" fill="white" mask="url(#logo-mask-white)"/>
</svg>
